<mxfile host="app.diagrams.net" modified="2024-05-30T21:27:29.718Z" agent="Mozilla/5.0 (Windows NT 10.0; Win64; x64) AppleWebKit/537.36 (KHTML, like Gecko) Chrome/125.0.0.0 Safari/537.36" etag="hIjAxRcCxPP7Ols1A_zq" version="24.4.10" type="google">
  <diagram name="Page-1" id="zAw4_ZxwHbent9y99uno">
    <mxGraphModel grid="1" page="1" gridSize="10" guides="1" tooltips="1" connect="1" arrows="1" fold="1" pageScale="1" pageWidth="850" pageHeight="1100" math="0" shadow="0">
      <root>
        <mxCell id="0" />
        <mxCell id="1" parent="0" />
        <mxCell id="CDoMVL7T3Utcz1zTlhYC-30" style="edgeStyle=orthogonalEdgeStyle;rounded=0;orthogonalLoop=1;jettySize=auto;html=1;" edge="1" parent="1" source="CDoMVL7T3Utcz1zTlhYC-10" target="CDoMVL7T3Utcz1zTlhYC-29">
          <mxGeometry relative="1" as="geometry" />
        </mxCell>
        <mxCell id="CDoMVL7T3Utcz1zTlhYC-33" value="HTTP Request" style="edgeLabel;html=1;align=center;verticalAlign=middle;resizable=0;points=[];" connectable="0" vertex="1" parent="CDoMVL7T3Utcz1zTlhYC-30">
          <mxGeometry x="-0.3908" y="-2" relative="1" as="geometry">
            <mxPoint x="16" y="-12" as="offset" />
          </mxGeometry>
        </mxCell>
        <mxCell id="CDoMVL7T3Utcz1zTlhYC-35" style="edgeStyle=orthogonalEdgeStyle;rounded=0;orthogonalLoop=1;jettySize=auto;html=1;" edge="1" parent="1" source="CDoMVL7T3Utcz1zTlhYC-10" target="CDoMVL7T3Utcz1zTlhYC-17">
          <mxGeometry relative="1" as="geometry">
            <Array as="points">
              <mxPoint x="140" y="280" />
              <mxPoint x="140" y="280" />
            </Array>
          </mxGeometry>
        </mxCell>
        <mxCell id="CDoMVL7T3Utcz1zTlhYC-37" value="www.foobar.com" style="edgeLabel;html=1;align=center;verticalAlign=middle;resizable=0;points=[];" connectable="0" vertex="1" parent="CDoMVL7T3Utcz1zTlhYC-35">
          <mxGeometry x="-0.2844" relative="1" as="geometry">
            <mxPoint x="-17" y="10" as="offset" />
          </mxGeometry>
        </mxCell>
        <mxCell id="CDoMVL7T3Utcz1zTlhYC-10" value="user" style="image;points=[];aspect=fixed;html=1;align=center;shadow=0;dashed=0;image=img/lib/allied_telesis/computer_and_terminals/Personal_Computer.svg;imageBackground=none;" vertex="1" parent="1">
          <mxGeometry x="210" y="207.5" width="77.48" height="105" as="geometry" />
        </mxCell>
        <mxCell id="CDoMVL7T3Utcz1zTlhYC-21" style="rounded=0;orthogonalLoop=1;jettySize=auto;html=1;edgeStyle=orthogonalEdgeStyle;" edge="1" parent="1" source="CDoMVL7T3Utcz1zTlhYC-17" target="CDoMVL7T3Utcz1zTlhYC-10">
          <mxGeometry relative="1" as="geometry">
            <Array as="points">
              <mxPoint x="140" y="260" />
              <mxPoint x="140" y="260" />
            </Array>
          </mxGeometry>
        </mxCell>
        <mxCell id="CDoMVL7T3Utcz1zTlhYC-38" value="8.8.8.8" style="edgeLabel;html=1;align=center;verticalAlign=middle;resizable=0;points=[];" connectable="0" vertex="1" parent="CDoMVL7T3Utcz1zTlhYC-21">
          <mxGeometry x="-0.0867" y="3" relative="1" as="geometry">
            <mxPoint y="-7" as="offset" />
          </mxGeometry>
        </mxCell>
        <mxCell id="CDoMVL7T3Utcz1zTlhYC-17" value="" style="image;sketch=0;aspect=fixed;html=1;points=[];align=center;fontSize=12;image=img/lib/mscae/DNS.svg;" vertex="1" parent="1">
          <mxGeometry x="10" y="230" width="80" height="80" as="geometry" />
        </mxCell>
        <mxCell id="CDoMVL7T3Utcz1zTlhYC-31" style="edgeStyle=orthogonalEdgeStyle;rounded=0;orthogonalLoop=1;jettySize=auto;html=1;" edge="1" parent="1" source="CDoMVL7T3Utcz1zTlhYC-29" target="CDoMVL7T3Utcz1zTlhYC-10">
          <mxGeometry relative="1" as="geometry">
            <Array as="points">
              <mxPoint x="350" y="280" />
              <mxPoint x="350" y="280" />
            </Array>
          </mxGeometry>
        </mxCell>
        <mxCell id="CDoMVL7T3Utcz1zTlhYC-34" value="HTTP Response" style="edgeLabel;html=1;align=center;verticalAlign=middle;resizable=0;points=[];" connectable="0" vertex="1" parent="CDoMVL7T3Utcz1zTlhYC-31">
          <mxGeometry x="0.0317" y="3" relative="1" as="geometry">
            <mxPoint y="7" as="offset" />
          </mxGeometry>
        </mxCell>
        <mxCell id="CDoMVL7T3Utcz1zTlhYC-29" value="Server" style="points=[[0,0],[0.25,0],[0.5,0],[0.75,0],[1,0],[1,0.25],[1,0.5],[1,0.75],[1,1],[0.75,1],[0.5,1],[0.25,1],[0,1],[0,0.75],[0,0.5],[0,0.25]];outlineConnect=0;gradientColor=none;html=1;whiteSpace=wrap;fontSize=12;fontStyle=0;container=1;pointerEvents=0;collapsible=0;recursiveResize=0;shape=mxgraph.aws4.group;grIcon=mxgraph.aws4.group_on_premise;strokeColor=#7D8998;fillColor=none;verticalAlign=top;align=left;spacingLeft=30;fontColor=#5A6C86;dashed=0;" vertex="1" parent="1">
          <mxGeometry x="410" y="60" width="420" height="400" as="geometry" />
        </mxCell>
        <mxCell id="CDoMVL7T3Utcz1zTlhYC-2" value="&lt;span style=&quot;color: rgb(51, 51, 51); font-family: aktiv-grotesk, sans-serif; font-size: 14px; text-align: left; text-wrap: wrap;&quot;&gt;web server (Nginx)&lt;/span&gt;" style="image;aspect=fixed;perimeter=ellipsePerimeter;html=1;align=center;shadow=0;dashed=0;spacingTop=3;image=img/lib/active_directory/web_server.svg;" vertex="1" parent="CDoMVL7T3Utcz1zTlhYC-29">
          <mxGeometry x="30" y="170" width="80" height="100" as="geometry" />
        </mxCell>
        <mxCell id="CDoMVL7T3Utcz1zTlhYC-3" value="&lt;span style=&quot;color: rgb(51, 51, 51); font-family: aktiv-grotesk, sans-serif; font-size: 14px; text-align: left; text-wrap: wrap;&quot;&gt;database (MySQL)&lt;/span&gt;" style="aspect=fixed;html=1;align=center;fontSize=12;image=img/lib/azure2/databases/SQL_Server.svg;shape=image;labelBackgroundColor=default;verticalAlign=top;verticalLabelPosition=bottom;points=[];" vertex="1" parent="CDoMVL7T3Utcz1zTlhYC-29">
          <mxGeometry x="290" y="20" width="75" height="100" as="geometry" />
        </mxCell>
        <mxCell id="CDoMVL7T3Utcz1zTlhYC-6" value="&lt;span style=&quot;color: rgb(51, 51, 51); font-family: aktiv-grotesk, sans-serif; font-size: 14px; text-align: left; text-wrap: wrap;&quot;&gt;application files&lt;/span&gt;" style="image;aspect=fixed;html=1;points=[];align=center;fontSize=12;image=img/lib/azure2/general/Files.svg;" vertex="1" parent="CDoMVL7T3Utcz1zTlhYC-29">
          <mxGeometry x="226" y="170" width="64" height="70" as="geometry" />
        </mxCell>
        <mxCell id="CDoMVL7T3Utcz1zTlhYC-25" style="rounded=0;orthogonalLoop=1;jettySize=auto;html=1;strokeColor=default;align=center;verticalAlign=middle;fontFamily=Helvetica;fontSize=11;fontColor=default;labelBackgroundColor=default;endArrow=classic;" edge="1" parent="CDoMVL7T3Utcz1zTlhYC-29" source="CDoMVL7T3Utcz1zTlhYC-6" target="CDoMVL7T3Utcz1zTlhYC-3">
          <mxGeometry relative="1" as="geometry" />
        </mxCell>
        <mxCell id="CDoMVL7T3Utcz1zTlhYC-4" value="&lt;span style=&quot;color: rgb(51, 51, 51); font-family: aktiv-grotesk, sans-serif; font-size: 14px; text-align: left; text-wrap: wrap;&quot;&gt;application server&lt;/span&gt;" style="image;aspect=fixed;perimeter=ellipsePerimeter;html=1;align=center;shadow=0;dashed=0;spacingTop=3;image=img/lib/active_directory/windows_server.svg;" vertex="1" parent="CDoMVL7T3Utcz1zTlhYC-29">
          <mxGeometry x="120" y="60" width="82" height="100" as="geometry" />
        </mxCell>
        <mxCell id="CDoMVL7T3Utcz1zTlhYC-23" style="rounded=0;orthogonalLoop=1;jettySize=auto;html=1;startArrow=classic;startFill=1;" edge="1" parent="CDoMVL7T3Utcz1zTlhYC-29" source="CDoMVL7T3Utcz1zTlhYC-2" target="CDoMVL7T3Utcz1zTlhYC-4">
          <mxGeometry relative="1" as="geometry" />
        </mxCell>
        <mxCell id="CDoMVL7T3Utcz1zTlhYC-24" style="rounded=0;orthogonalLoop=1;jettySize=auto;html=1;strokeColor=default;align=center;verticalAlign=middle;fontFamily=Helvetica;fontSize=11;fontColor=default;labelBackgroundColor=default;endArrow=classic;startArrow=classic;startFill=1;" edge="1" parent="CDoMVL7T3Utcz1zTlhYC-29" source="CDoMVL7T3Utcz1zTlhYC-3" target="CDoMVL7T3Utcz1zTlhYC-4">
          <mxGeometry relative="1" as="geometry" />
        </mxCell>
        <mxCell id="CDoMVL7T3Utcz1zTlhYC-26" style="rounded=0;orthogonalLoop=1;jettySize=auto;html=1;" edge="1" parent="CDoMVL7T3Utcz1zTlhYC-29" source="CDoMVL7T3Utcz1zTlhYC-6" target="CDoMVL7T3Utcz1zTlhYC-4">
          <mxGeometry relative="1" as="geometry" />
        </mxCell>
      </root>
    </mxGraphModel>
  </diagram>
</mxfile>
